<svg width="48" height="48" viewBox="0 0 48 48" fill="none" xmlns="http://www.w3.org/2000/svg">
<defs>
  <linearGradient id="coinsGradient" x1="0%" y1="0%" x2="100%" y2="100%">
    <stop offset="0%" style="stop-color:#06B6D4;stop-opacity:1" />
    <stop offset="100%" style="stop-color:#0891B2;stop-opacity:1" />
  </linearGradient>
</defs>
<rect width="48" height="48" rx="12" fill="url(#coinsGradient)"/>
<!-- Layered coins with depth -->
<!-- Back coin -->
<circle cx="28" cy="26" r="8" fill="white" opacity="0.5"/>
<path d="M28 22V24M28 28V30" stroke="#0891B2" stroke-width="1.5" stroke-linecap="round"/>
<path d="M25 24H29.5C30.328 24 31 24.672 31 25.5C31 26.328 30.328 27 29.5 27H25" stroke="#0891B2" stroke-width="1.5" stroke-linecap="round"/>
<!-- Middle coin -->
<circle cx="20" cy="22" r="8" fill="white" opacity="0.75"/>
<path d="M20 16L17 23L20 25L23 23L20 16Z" fill="#0891B2"/>
<path d="M20 26L17 24L20 29L23 24L20 26Z" fill="#0891B2"/>
<!-- Front coin -->
<circle cx="24" cy="28" r="9" fill="white"/>
<path d="M24 21V23C22.343 23 21 24.343 21 26C21 27.657 22.343 29 24 29V31C23.448 31 23 30.552 23 30H21C21 31.657 22.343 33 24 33V35H25V33C26.657 33 28 31.657 28 30C28 28.343 26.657 27 25 27V25C25.552 25 26 25.448 26 26H28C28 24.343 26.657 23 25 23V21H24ZM24 25V27C23.448 27 23 26.552 23 26C23 25.448 23.448 25 24 25ZM25 29C25.552 29 26 29.448 26 30C26 30.552 25.552 31 25 31V29Z" fill="#0891B2"/>
</svg>
