<?xml version="1.0" encoding="UTF-8"?>
<svg version="1.1" xmlns="http://www.w3.org/2000/svg" width="96" height="96">
<path d="M0 0 C5.87644453 1.12973507 10.90280503 4.89414588 15.94921875 7.9609375 C22.17950791 11.45398487 27.59169193 12.1291764 34.7109375 12.34375 C37.51953125 12.484375 37.51953125 12.484375 38.51953125 13.484375 C38.61828295 15.16692735 38.64752029 16.85361528 38.64892578 18.5390625 C38.65207794 19.61687988 38.6552301 20.69469727 38.65847778 21.80517578 C38.65544144 23.56450439 38.65544144 23.56450439 38.65234375 25.359375 C38.65330048 26.5541748 38.6542572 27.74897461 38.65524292 28.97998047 C38.65592496 31.5120448 38.65406903 34.04411088 38.64990234 36.57617188 C38.64455446 40.4674876 38.64984658 44.35868789 38.65625 48.25 C38.65558922 50.70312526 38.65430807 53.15625044 38.65234375 55.609375 C38.65436798 56.78226074 38.65639221 57.95514648 38.65847778 59.16357422 C38.65374954 60.78030029 38.65374954 60.78030029 38.64892578 62.4296875 C38.64813019 63.38375488 38.64733459 64.33782227 38.64651489 65.32080078 C38.51953125 67.484375 38.51953125 67.484375 37.51953125 68.484375 C35.79345681 68.75490115 34.06348108 69.00071106 32.33203125 69.234375 C26.87294102 70.1619247 24.4313487 71.67035298 20.51953125 75.484375 C17.78668984 76.39532214 16.03550818 76.62958975 13.2109375 76.6953125 C12.38142578 76.72367187 11.55191406 76.75203125 10.69726562 76.78125 C8.95789499 76.83321029 7.21827843 76.87751835 5.47851562 76.9140625 C0.71980656 77.09126811 -1.75857822 77.34711772 -5.48046875 80.484375 C-8.25 80.91796875 -8.25 80.91796875 -11.29296875 80.921875 C-12.28941406 80.94121094 -13.28585938 80.96054688 -14.3125 80.98046875 C-23.79623036 79.49534698 -29.56878667 71.57311479 -35.80859375 64.95117188 C-40.12785412 60.48132504 -43.52070085 57.39435381 -49.48046875 55.484375 C-49.52301231 53.48482754 -49.52127658 51.48395864 -49.48046875 49.484375 C-47.95095849 47.95486474 -46.54686461 48.1304399 -44.41796875 47.984375 C-39.44113147 48.08594311 -37.26965729 49.66970101 -33.78125 53.07421875 C-33.02199219 53.86957031 -32.26273438 54.66492187 -31.48046875 55.484375 C-29.8698239 57.15573964 -28.25423416 58.82167992 -26.62988281 60.47973633 C-25.51187512 61.62564638 -24.40512593 62.78268036 -23.31152344 63.9519043 C-19.670616 67.72348509 -16.59776309 70.10100563 -11.48046875 71.484375 C-6.5701085 69.72567228 -2.67343864 65.16174671 1.08203125 61.609375 C1.74138672 60.99707031 2.40074219 60.38476562 3.08007812 59.75390625 C9.5929759 53.93534082 9.5929759 53.93534082 13.33203125 46.296875 C12.04361464 40.25122784 7.82109699 36.73393563 3.51953125 32.484375 C2.92785156 31.89140625 2.33617187 31.2984375 1.7265625 30.6875 C1.32824219 30.29046875 0.92992187 29.8934375 0.51953125 29.484375 C-3.02752163 31.08979467 -5.98526126 33.2298476 -9.10546875 35.546875 C-15.5350809 40.31306202 -19.43279515 41.30394006 -27.48046875 40.484375 C-31.86550336 38.33172164 -34.90348 35.64720299 -37.48046875 31.484375 C-37.87890625 28.61328125 -37.87890625 28.61328125 -37.48046875 25.484375 C-35.43359375 23.03515625 -35.43359375 23.03515625 -32.73046875 20.796875 C-31.84875 20.05050781 -30.96703125 19.30414062 -30.05859375 18.53515625 C-27.89184411 16.8116054 -25.69925184 15.13962489 -23.48046875 13.484375 C-24.60859985 13.44679077 -24.60859985 13.44679077 -25.75952148 13.40844727 C-29.14586071 13.29286986 -32.53189488 13.16997155 -35.91796875 13.046875 C-37.10197266 13.00755859 -38.28597656 12.96824219 -39.50585938 12.92773438 C-41.19291992 12.86489258 -41.19291992 12.86489258 -42.9140625 12.80078125 C-43.95618896 12.76412354 -44.99831543 12.72746582 -46.07202148 12.68969727 C-48.48046875 12.484375 -48.48046875 12.484375 -49.48046875 11.484375 C-49.60546875 8.484375 -49.60546875 8.484375 -49.48046875 5.484375 C-47.44975069 3.45365694 -43.25848474 4.29930653 -40.46484375 4.2734375 C-38.80467783 4.24535767 -37.14452172 4.21669313 -35.484375 4.1875 C-32.85986724 4.14630048 -30.23554031 4.10942605 -27.61083984 4.08300781 C-25.0826193 4.05533527 -22.55523894 4.00945076 -20.02734375 3.9609375 C-19.2469574 3.95768463 -18.46657104 3.95443176 -17.66253662 3.95108032 C-10.90006552 3.79910534 -6.68438938 -0.22170446 0 0 Z " fill="#0AE02B" transform="translate(53.48046875,7.515625)"/>
</svg>
